<svg xmlns="http://www.w3.org/2000/svg" xmlns:xlink="http://www.w3.org/1999/xlink" viewBox="0 0 64 64">



<defs>
    <path id="b1" d="M-5,1.1 C-2.6,-1.2 -1.2,-1.8 0,-0.5 C1.2,-1.8 2.6,-1.2 5,1.1 C2.4,0.5 1.1,0.9 0,2.3 C-1.1,0.9 -2.4,0.5 -5,1.1 Z"></path>
    <path id="b2" d="M-5,0.6 C-2.4,-0.7 -1,-1 0,-0.3 C1,-1 2.4,-0.7 5,0.6 C2.4,0.5 1,0.8 0,1.8 C-1,0.8 -2.4,0.5 -5,0.6 Z"></path>
    <path id="b3" d="M-4.2,-2 C-2.6,-3 -1.2,-2.7 0,-1 C1.2,-2.7 2.6,-3 4.2,-2 C2.8,-1.6 1.3,-0.4 0,1.8 C-1.3,-0.4 -2.8,-1.6 -4.2,-2 Z"></path>

    <g id="cam-wide-L">
      <polygon points="10,2.6 45,8 43.2,15.2 8.2,9.8"></polygon>
      <g transform="rotate(-10 33 11)"><rect x="31.4" y="7.5" width="3.2" height="6.5"></rect></g>
      <rect x="29.8" y="12.6" width="5.2" height="3.2"></rect>
      <rect x="31" y="14" width="2.6" height="50"></rect>
      <rect x="29" y="18" width="6.2" height="2.8"></rect>
      <g transform="translate(24.6 25.8) rotate(225) scale(0.8)">
        <path d="M0,-7.6 C4.5,-7.6 7.6,-4.7 7.6,-0.6 C7.6,4.1 4.3,8.4 1.3,10.1 C0.5,10.6 -0.5,10.6 -1.3,10.1 C-4.3,8.4 -7.6,4.1 -7.6,-0.6 C-7.6,-4.7 -4.5,-7.6 0,-7.6 Z"></path>
      </g>
    </g>
    <g id="cam-wide-S">
      <polygon points="7,2 46,8 44,17 5,11"></polygon>
      <rect x="28.4" y="12" width="7.2" height="4.6"></rect>
      <rect x="29.6" y="15" width="4.4" height="49"></rect>
      <rect x="26" y="18.5" width="8" height="4"></rect>
      <circle cx="23" cy="26" r="7.2"></circle>
      <path d="M27.5,17.5 L31,21 L24,27.5 Z"></path>
    </g>

    <mask id="mPodL">
      <rect x="0" y="0" width="64" height="64" fill="white"></rect>
      <g transform="rotate(-8 26 16)" fill="black"><rect x="10" y="15.5" width="32" height="2" rx="1"></rect></g>
      <circle cx="29" cy="45" r="2.4" fill="black"></circle>
    </mask>
    <g id="cam-pod-L">
      <rect x="53" y="1" width="9" height="62"></rect>
      <rect x="50" y="17" width="14" height="3"></rect>
      <rect x="50" y="31" width="14" height="3"></rect>
      <rect x="43.5" y="20.5" width="9" height="10"></rect>
      <path d="M7,19 C7,8.5 15,3 27,3 C39,3 46,9.5 46,19 L46,30 C46,42 41,52 33.5,56.5 C28.5,59.4 23,57 20.5,49.5 C18.5,43.5 17,35 16.5,28 L15.5,23.5 L7,22.5 Z" mask="url(#mPodL)"></path>
    </g>
    <mask id="mPodS">
      <rect x="0" y="0" width="64" height="64" fill="white"></rect>
      <g transform="rotate(-8 26 16)" fill="black"><rect x="10" y="15" width="32" height="3" rx="1.5"></rect></g>
    </mask>
    <g id="cam-pod-S">
      <rect x="52" y="1" width="10" height="62"></rect>
      <rect x="49" y="24" width="14" height="4"></rect>
      <path d="M7,19 C7,8.5 15,3 27,3 C39,3 46,9.5 46,19 L46,30 C46,42 41,52 33.5,56.5 C28.5,59.4 23,57 20.5,49.5 C18.5,43.5 17,35 16.5,28 L15.5,23.5 L7,22.5 Z" mask="url(#mPodS)"></path>
    </g>

    <mask id="mFaceL">
      <rect x="0" y="0" width="64" height="64" fill="white"></rect>
      <path d="M32,12 C40.5,12 46,17.5 46,24 C46,30.5 39.5,37 34.2,40.4 C32.8,41.3 31.2,41.3 29.8,40.4 C24.5,37 18,30.5 18,24 C18,17.5 23.5,12 32,12 Z" fill="black"></path>
      <circle cx="32" cy="49" r="2.2" fill="black"></circle>
    </mask>
    <g id="face-shell-L">
      <path d="M32,3 C43,3 50,9.6 50,19.5 L50,43 C50,54 42.6,61 32,61 C21.4,61 14,54 14,43 L14,19.5 C14,9.6 21,3 32,3 Z" mask="url(#mFaceL)"></path>
    </g>
    <g id="face-leds-L">
      <circle cx="32" cy="23.5" r="3.4"></circle>
      <circle cx="32" cy="16.5" r="2.3"></circle>
      <circle cx="38.1" cy="20" r="2.3"></circle>
      <circle cx="38.1" cy="27" r="2.3"></circle>
      <circle cx="32" cy="30.5" r="2.3"></circle>
      <circle cx="25.9" cy="27" r="2.3"></circle>
      <circle cx="25.9" cy="20" r="2.3"></circle>
      <circle cx="32" cy="36" r="1.7"></circle>
    </g>
    <mask id="mFaceS">
      <rect x="0" y="0" width="64" height="64" fill="white"></rect>
      <path d="M32,11 C41,11 47,17 47,24.5 C47,31.5 40,38.5 34.2,42 C32.9,42.8 31.1,42.8 29.8,42 C24,38.5 17,31.5 17,24.5 C17,17 23,11 32,11 Z" fill="black"></path>
    </mask>
    <g id="face-shell-S">
      <path d="M32,3 C43.6,3 50.5,9.8 50.5,20 L50.5,43 C50.5,54.4 42.8,61.5 32,61.5 C21.2,61.5 13.5,54.4 13.5,43 L13.5,20 C13.5,9.8 20.4,3 32,3 Z" mask="url(#mFaceS)"></path>
    </g>
    <g id="face-leds-S">
      <circle cx="32" cy="24" r="4.6"></circle>
      <circle cx="32" cy="15.8" r="3.2"></circle>
      <circle cx="40.2" cy="24" r="3.2"></circle>
      <circle cx="32" cy="32.2" r="3.2"></circle>
      <circle cx="23.8" cy="24" r="3.2"></circle>
    </g>

    <g id="emblem-a">
      <use href="#b2" transform="translate(8 53) rotate(-24) scale(0.55)"></use>
      <use href="#b1" transform="translate(13 50) rotate(-18) scale(0.7)"></use>
      <use href="#b3" transform="translate(11 44) rotate(-12) scale(0.6)"></use>
      <use href="#b1" transform="translate(17 46) rotate(-20) scale(0.8)"></use>
      <use href="#b2" transform="translate(21 49) rotate(-26) scale(0.65)"></use>
      <use href="#b1" transform="translate(19 40) rotate(-10) scale(0.85)"></use>
      <use href="#b3" transform="translate(25 43) rotate(-16) scale(0.95)"></use>
      <use href="#b2" transform="translate(29 46) rotate(-22) scale(0.7)"></use>
      <use href="#b1" transform="translate(23 35) rotate(-8) scale(0.95)"></use>
      <use href="#b1" transform="translate(28 38) rotate(-14) scale(1.1)"></use>
      <use href="#b3" transform="translate(33 41) rotate(-18) scale(0.9)"></use>
      <use href="#b2" transform="translate(27 30) rotate(-6) scale(1.05)"></use>
      <use href="#b1" transform="translate(32 33) rotate(-12) scale(1.25)"></use>
      <use href="#b3" transform="translate(37 36) rotate(-16) scale(1.05)"></use>
      <use href="#b2" transform="translate(41 38) rotate(-20) scale(0.8)"></use>
      <use href="#b3" transform="translate(31 25) rotate(-4) scale(1.1)"></use>
      <use href="#b1" transform="translate(36 28) rotate(-10) scale(1.3)"></use>
      <use href="#b2" transform="translate(41 30) rotate(-14) scale(1.1)"></use>
      <use href="#b1" transform="translate(45 33) rotate(-18) scale(0.85)"></use>
      <use href="#b2" transform="translate(35 20) rotate(-2) scale(1)"></use>
      <use href="#b1" transform="translate(40 22) rotate(-8) scale(1.15)"></use>
      <use href="#b3" transform="translate(45 25) rotate(-12) scale(0.95)"></use>
      <use href="#b1" transform="translate(49 27) rotate(-16) scale(0.7)"></use>
      <use href="#b3" transform="translate(40 15) rotate(0) scale(0.85)"></use>
      <use href="#b1" transform="translate(44 17) rotate(-6) scale(0.95)"></use>
      <use href="#b2" transform="translate(49 20) rotate(-10) scale(0.75)"></use>
      <use href="#b1" transform="translate(44 10) rotate(2) scale(0.65)"></use>
      <use href="#b3" transform="translate(49 12) rotate(-4) scale(0.7)"></use>
      <use href="#b2" transform="translate(53 15) rotate(-8) scale(0.55)"></use>
      <use href="#b1" transform="translate(54 8) rotate(0) scale(0.5)"></use>
    </g>

    <mask id="mEmB">
      <rect x="0" y="0" width="64" height="64" fill="white"></rect>
      <g fill="black">
        <use href="#b1" transform="translate(15 43) rotate(-14) scale(0.75)"></use>
        <use href="#b2" transform="translate(21 45) rotate(-18) scale(0.85)"></use>
        <use href="#b3" transform="translate(19 37) rotate(-10) scale(0.7)"></use>
        <use href="#b1" transform="translate(26 40) rotate(-14) scale(1)"></use>
        <use href="#b2" transform="translate(32 42) rotate(-18) scale(0.8)"></use>
        <use href="#b3" transform="translate(25 32) rotate(-8) scale(0.9)"></use>
        <use href="#b1" transform="translate(31 35) rotate(-12) scale(1.15)"></use>
        <use href="#b2" transform="translate(37 37) rotate(-16) scale(0.9)"></use>
        <use href="#b2" transform="translate(30 27) rotate(-6) scale(0.85)"></use>
        <use href="#b1" transform="translate(36 29) rotate(-10) scale(1.1)"></use>
        <use href="#b3" transform="translate(42 31) rotate(-14) scale(0.9)"></use>
        <use href="#b3" transform="translate(35 22) rotate(-4) scale(0.8)"></use>
        <use href="#b1" transform="translate(41 24) rotate(-8) scale(0.95)"></use>
        <use href="#b2" transform="translate(46 26) rotate(-12) scale(0.7)"></use>
        <use href="#b1" transform="translate(40 17) rotate(-2) scale(0.7)"></use>
        <use href="#b3" transform="translate(45 19) rotate(-6) scale(0.75)"></use>
      </g>
    </mask>
    <g id="emblem-b">
      <circle cx="32" cy="32" r="26" mask="url(#mEmB)"></circle>
      <use href="#b1" transform="translate(54 10) rotate(-6) scale(0.7)"></use>
      <use href="#b2" transform="translate(58 14) rotate(-10) scale(0.55)"></use>
      <use href="#b3" transform="translate(51 6) rotate(-2) scale(0.5)"></use>
    </g>

    <g id="emblem-c">
      <use href="#b1" transform="translate(32 32) rotate(15) translate(0 -7.5) rotate(12) scale(0.7)"></use>
      <use href="#b3" transform="translate(32 32) rotate(105) translate(0 -7.5) rotate(12) scale(0.7)"></use>
      <use href="#b1" transform="translate(32 32) rotate(195) translate(0 -7.5) rotate(12) scale(0.7)"></use>
      <use href="#b2" transform="translate(32 32) rotate(285) translate(0 -7.5) rotate(12) scale(0.7)"></use>
      <use href="#b1" transform="translate(32 32) rotate(8) translate(0 -14) rotate(14) scale(0.95)"></use>
      <use href="#b3" transform="translate(32 32) rotate(59) translate(0 -14) rotate(14) scale(0.95)"></use>
      <use href="#b2" transform="translate(32 32) rotate(111) translate(0 -14) rotate(14) scale(0.95)"></use>
      <use href="#b1" transform="translate(32 32) rotate(162) translate(0 -14) rotate(14) scale(0.95)"></use>
      <use href="#b3" transform="translate(32 32) rotate(214) translate(0 -14) rotate(14) scale(0.95)"></use>
      <use href="#b2" transform="translate(32 32) rotate(265) translate(0 -14) rotate(14) scale(0.95)"></use>
      <use href="#b1" transform="translate(32 32) rotate(317) translate(0 -14) rotate(14) scale(0.95)"></use>
      <use href="#b1" transform="translate(32 32) rotate(5) translate(0 -20.5) rotate(16) scale(1)"></use>
      <use href="#b3" transform="translate(32 32) rotate(41) translate(0 -20.5) rotate(16) scale(1)"></use>
      <use href="#b2" transform="translate(32 32) rotate(113) translate(0 -20.5) rotate(16) scale(1)"></use>
      <use href="#b1" transform="translate(32 32) rotate(149) translate(0 -20.5) rotate(16) scale(1)"></use>
      <use href="#b3" transform="translate(32 32) rotate(185) translate(0 -20.5) rotate(16) scale(1)"></use>
      <use href="#b2" transform="translate(32 32) rotate(257) translate(0 -20.5) rotate(16) scale(1)"></use>
      <use href="#b1" transform="translate(32 32) rotate(293) translate(0 -20.5) rotate(16) scale(1)"></use>
      <use href="#b3" transform="translate(32 32) rotate(329) translate(0 -20.5) rotate(16) scale(1)"></use>
      <use href="#b1" transform="translate(55 12) rotate(-10) scale(0.7)"></use>
      <use href="#b2" transform="translate(58 18) rotate(-14) scale(0.55)"></use>
      <use href="#b3" transform="translate(52 7) rotate(-6) scale(0.5)"></use>
    </g>

    <g id="emblem-d">
      <use href="#b2" transform="translate(26 19.5) rotate(-8) scale(0.5)"></use>
      <use href="#b1" transform="translate(33 18.5) rotate(-4) scale(0.55)"></use>
      <use href="#b3" transform="translate(40 20.5) rotate(-10) scale(0.5)"></use>
      <use href="#b1" transform="translate(18 24) rotate(-6) scale(0.6)"></use>
      <use href="#b3" transform="translate(24 22.5) rotate(-12) scale(0.75)"></use>
      <use href="#b1" transform="translate(30 24) rotate(-2) scale(0.9)"></use>
      <use href="#b2" transform="translate(36.5 23) rotate(-8) scale(0.8)"></use>
      <use href="#b1" transform="translate(43 25) rotate(-14) scale(0.6)"></use>
      <use href="#b2" transform="translate(49 23.5) rotate(-4) scale(0.5)"></use>
      <use href="#b3" transform="translate(12 29) rotate(-8) scale(0.55)"></use>
      <use href="#b1" transform="translate(18 27.5) rotate(-2) scale(0.8)"></use>
      <use href="#b2" transform="translate(24 28.5) rotate(-10) scale(1.05)"></use>
      <use href="#b1" transform="translate(30 27.5) rotate(-6) scale(1.2)"></use>
      <use href="#b3" transform="translate(36 28.5) rotate(-12) scale(1.15)"></use>
      <use href="#b1" transform="translate(42 28) rotate(-4) scale(0.95)"></use>
      <use href="#b2" transform="translate(48 29) rotate(-10) scale(0.7)"></use>
      <use href="#b1" transform="translate(54 27.5) rotate(-6) scale(0.5)"></use>
      <use href="#b2" transform="translate(9 33.5) rotate(-4) scale(0.5)"></use>
      <use href="#b3" transform="translate(15 32) rotate(-10) scale(0.75)"></use>
      <use href="#b1" transform="translate(21 32.5) rotate(-6) scale(1.1)"></use>
      <use href="#b2" transform="translate(27 31.5) rotate(-2) scale(1.3)"></use>
      <use href="#b1" transform="translate(33.5 32.5) rotate(-8) scale(1.35)"></use>
      <use href="#b3" transform="translate(40 32) rotate(-12) scale(1.2)"></use>
      <use href="#b1" transform="translate(46 32.5) rotate(-6) scale(0.95)"></use>
      <use href="#b2" transform="translate(51.5 33.5) rotate(-10) scale(0.65)"></use>
      <use href="#b1" transform="translate(57 32) rotate(-4) scale(0.45)"></use>
      <use href="#b1" transform="translate(13 37.5) rotate(-8) scale(0.6)"></use>
      <use href="#b3" transform="translate(19 36) rotate(-4) scale(0.85)"></use>
      <use href="#b2" transform="translate(25 36.5) rotate(-10) scale(1.1)"></use>
      <use href="#b1" transform="translate(31 37.5) rotate(-6) scale(1.2)"></use>
      <use href="#b3" transform="translate(37 36) rotate(-2) scale(1.05)"></use>
      <use href="#b1" transform="translate(43 36.5) rotate(-12) scale(0.8)"></use>
      <use href="#b2" transform="translate(49 37.5) rotate(-6) scale(0.55)"></use>
      <use href="#b3" transform="translate(17 41.5) rotate(-4) scale(0.55)"></use>
      <use href="#b1" transform="translate(23 40) rotate(-10) scale(0.75)"></use>
      <use href="#b2" transform="translate(29 41.5) rotate(-6) scale(0.9)"></use>
      <use href="#b1" transform="translate(35 40.5) rotate(-2) scale(0.8)"></use>
      <use href="#b3" transform="translate(41 41.5) rotate(-8) scale(0.6)"></use>
      <use href="#b1" transform="translate(27 44.5) rotate(-6) scale(0.5)"></use>
      <use href="#b2" transform="translate(33 45.5) rotate(-10) scale(0.5)"></use>
    </g>

    <g id="emblem-e">
      <use href="#b2" transform="translate(30.5 3.5) rotate(-4) scale(0.6)"></use>
      <use href="#b1" transform="translate(31 7.5) rotate(-6) scale(0.75)"></use>
      <use href="#b3" transform="translate(32.5 56) rotate(-8) scale(0.6)"></use>
      <use href="#b1" transform="translate(40 14) rotate(-10) scale(0.8)"></use>
      <use href="#b2" transform="translate(34.5 12) rotate(-4) scale(0.85)"></use>
      <use href="#b3" transform="translate(28.5 12.5) rotate(-8) scale(0.8)"></use>
      <use href="#b1" transform="translate(23.5 15.5) rotate(-14) scale(0.8)"></use>
      <use href="#b2" transform="translate(21 21) rotate(-6) scale(0.85)"></use>
      <use href="#b3" transform="translate(23.5 25.5) rotate(-2) scale(0.8)"></use>
      <use href="#b1" transform="translate(28.5 27.5) rotate(-8) scale(0.85)"></use>
      <use href="#b2" transform="translate(34 29.5) rotate(-4) scale(0.85)"></use>
      <use href="#b1" transform="translate(38.5 32.5) rotate(-10) scale(0.8)"></use>
      <use href="#b3" transform="translate(41 37) rotate(-6) scale(0.85)"></use>
      <use href="#b2" transform="translate(39 42.5) rotate(-2) scale(0.8)"></use>
      <use href="#b1" transform="translate(34 45.5) rotate(-8) scale(0.85)"></use>
      <use href="#b3" transform="translate(28 46.5) rotate(-4) scale(0.8)"></use>
      <use href="#b1" transform="translate(22 44) rotate(-12) scale(0.8)"></use>
      <use href="#b2" transform="translate(33 51.5) rotate(-6) scale(0.75)"></use>
    </g>

    <g id="emblem-f">
      <use href="#b1" transform="translate(32 12) rotate(0) scale(1.1)"></use>
      <use href="#b2" transform="translate(26.5 16.5) rotate(10) scale(0.95)"></use>
      <use href="#b2" transform="translate(37.5 16.5) rotate(-10) scale(0.95)"></use>
      <use href="#b3" transform="translate(21 21) rotate(14) scale(0.8)"></use>
      <use href="#b3" transform="translate(43 21) rotate(-14) scale(0.8)"></use>
      <use href="#b1" transform="translate(32 26) rotate(0) scale(1.05)"></use>
      <use href="#b2" transform="translate(26 30.5) rotate(10) scale(0.95)"></use>
      <use href="#b2" transform="translate(38 30.5) rotate(-10) scale(0.95)"></use>
      <use href="#b3" transform="translate(20 35) rotate(14) scale(0.85)"></use>
      <use href="#b3" transform="translate(44 35) rotate(-14) scale(0.85)"></use>
      <use href="#b1" transform="translate(14 39.5) rotate(16) scale(0.7)"></use>
      <use href="#b1" transform="translate(50 39.5) rotate(-16) scale(0.7)"></use>
      <use href="#b1" transform="translate(32 41) rotate(0) scale(1)"></use>
      <use href="#b2" transform="translate(26 45.5) rotate(10) scale(0.9)"></use>
      <use href="#b2" transform="translate(38 45.5) rotate(-10) scale(0.9)"></use>
      <use href="#b3" transform="translate(20 50) rotate(14) scale(0.75)"></use>
      <use href="#b3" transform="translate(44 50) rotate(-14) scale(0.75)"></use>
      <use href="#b2" transform="translate(11 46) rotate(18) scale(0.5)"></use>
      <use href="#b2" transform="translate(53 46) rotate(-18) scale(0.5)"></use>
    </g>
  </defs>
<g fill="#14100a"><use href="#face-shell-L" xlink:href="#face-shell-L"></use><use href="#face-leds-L" xlink:href="#face-leds-L"></use></g>
</svg>