<svg xmlns="http://www.w3.org/2000/svg" viewBox="0 0 64 64" fill="#14100a"><title>Spider-eye camera face — front view (geometry: DeFlock Icons v2 master, 03)</title><mask id="mFaceL"><rect x="0" y="0" width="64" height="64" fill="white"></rect><path d="M32,12 C40.5,12 46,17.5 46,24 C46,30.5 39.5,37 34.2,40.4 C32.8,41.3 31.2,41.3 29.8,40.4 C24.5,37 18,30.5 18,24 C18,17.5 23.5,12 32,12 Z" fill="black"></path><circle cx="32" cy="49" r="2.2" fill="black"></circle></mask><path d="M32,3 C43,3 50,9.6 50,19.5 L50,43 C50,54 42.6,61 32,61 C21.4,61 14,54 14,43 L14,19.5 C14,9.6 21,3 32,3 Z" mask="url(#mFaceL)"></path><circle cx="32" cy="23.5" r="3.4"></circle><circle cx="32" cy="16.5" r="2.3"></circle><circle cx="38.1" cy="20" r="2.3"></circle><circle cx="38.1" cy="27" r="2.3"></circle><circle cx="32" cy="30.5" r="2.3"></circle><circle cx="25.9" cy="27" r="2.3"></circle><circle cx="25.9" cy="20" r="2.3"></circle><circle cx="32" cy="36" r="1.7"></circle></svg>