<svg xmlns="http://www.w3.org/2000/svg" viewBox="0 0 64 64" fill="#14100a"><title>Spider-eye camera face — front view, favicon scale (geometry: DeFlock Icons v2 master, 03 · 4 LED)</title><mask id="mFaceS"><rect x="0" y="0" width="64" height="64" fill="white"></rect><path d="M32,11 C41,11 47,17 47,24.5 C47,31.5 40,38.5 34.2,42 C32.9,42.8 31.1,42.8 29.8,42 C24,38.5 17,31.5 17,24.5 C17,17 23,11 32,11 Z" fill="black"></path></mask><path d="M32,3 C43.6,3 50.5,9.8 50.5,20 L50.5,43 C50.5,54.4 42.8,61.5 32,61.5 C21.2,61.5 13.5,54.4 13.5,43 L13.5,20 C13.5,9.8 20.4,3 32,3 Z" mask="url(#mFaceS)"></path><circle cx="32" cy="24" r="4.6"></circle><circle cx="32" cy="15.8" r="3.2"></circle><circle cx="40.2" cy="24" r="3.2"></circle><circle cx="32" cy="32.2" r="3.2"></circle><circle cx="23.8" cy="24" r="3.2"></circle></svg>